<svg width="128" height="128" viewBox="0 0 128 128" fill="none" xmlns="http://www.w3.org/2000/svg">
<rect width="128" height="128" rx="20" fill="#F5F5F5"/>
<g filter="url(#filter0_i_8_58)">
<path d="M50.7085 65.0035V63.0374C50.7085 56.6477 51.9783 51.2 54.5178 46.6944C57.0573 42.1069 60.416 38.6253 64.5939 36.2496C68.8538 33.792 73.4823 32.5632 78.4794 32.5632C84.0499 32.5632 88.2688 33.5462 91.136 35.5123C94.0032 37.4784 96.0922 39.5264 97.4029 41.6563H99.6147V34.2835H114.852V106.045C114.852 110.223 113.623 113.541 111.165 115.999C108.708 118.538 105.431 119.808 101.335 119.808H60.5389V106.291H95.9283C98.2221 106.291 99.369 105.062 99.369 102.605V86.7533H97.1571C96.3379 88.064 95.1911 89.4157 93.7165 90.8083C92.2419 92.119 90.2759 93.2249 87.8183 94.1261C85.3607 95.0272 82.2477 95.4777 78.4794 95.4777C73.4823 95.4777 68.8538 94.2899 64.5939 91.9142C60.416 89.4566 57.0573 85.975 54.5178 81.4694C51.9783 76.8819 50.7085 71.3933 50.7085 65.0035ZM82.9031 81.9609C87.6544 81.9609 91.6275 80.4454 94.8224 77.4144C98.0173 74.3833 99.6147 70.1235 99.6147 64.6349V63.4061C99.6147 57.8355 98.0173 53.5757 94.8224 50.6265C91.7095 47.5955 87.7363 46.08 82.9031 46.08C78.1517 46.08 74.1786 47.5955 70.9837 50.6265C67.7888 53.5757 66.1914 57.8355 66.1914 63.4061V64.6349C66.1914 70.1235 67.7888 74.3833 70.9837 77.4144C74.1786 80.4454 78.1517 81.9609 82.9031 81.9609Z" fill="#34B87E"/>
</g>
<g filter="url(#filter1_d_8_58)">
<path d="M39.0349 96.9523C31.0887 96.9523 24.576 95.232 19.497 91.7913C14.418 88.3507 11.346 83.4355 10.281 77.0457L24.5351 73.3593C25.1085 76.2265 26.0506 78.4793 27.3613 80.1177C28.754 81.7561 30.4333 82.944 32.3994 83.6813C34.4474 84.3366 36.6592 84.6643 39.0349 84.6643C42.6394 84.6643 45.3018 84.0499 47.0221 82.8211C48.7424 81.5104 49.6026 79.9129 49.6026 78.0288C49.6026 76.1446 48.7834 74.711 47.145 73.728C45.5066 72.663 42.8852 71.8029 39.2807 71.1475L35.84 70.5331C31.5802 69.7139 27.689 68.608 24.1664 67.2153C20.6439 65.7408 17.8176 63.7337 15.6877 61.1942C13.5578 58.6547 12.4928 55.3779 12.4928 51.3638C12.4928 45.3017 14.7047 40.6733 19.1284 37.4784C23.552 34.2016 29.3684 32.5632 36.5773 32.5632C43.3767 32.5632 49.0292 34.0787 53.5348 37.1097C58.0404 40.1408 60.9895 44.1139 62.3821 49.0291L48.0052 53.4528C47.3498 50.3398 45.9981 48.128 43.9501 46.8173C41.984 45.5065 39.5264 44.8512 36.5773 44.8512C33.6282 44.8512 31.3754 45.3837 29.8189 46.4486C28.2624 47.4317 27.4842 48.8243 27.4842 50.6265C27.4842 52.5926 28.3034 54.0672 29.9418 55.0502C31.5802 55.9513 33.792 56.6477 36.5773 57.1392L40.018 57.7536C44.6055 58.5728 48.7425 59.6787 52.4289 61.0713C56.1972 62.3821 59.1463 64.3072 61.2762 66.8467C63.4881 69.3043 64.594 72.663 64.594 76.9229C64.594 83.3126 62.2593 88.2688 57.5898 91.7913C53.0023 95.232 46.8173 96.9523 39.0349 96.9523Z" fill="#151718"/>
</g>
<defs>
<filter id="filter0_i_8_58" x="50.7085" y="32.5632" width="66.1433" height="90.2448" filterUnits="userSpaceOnUse" color-interpolation-filters="sRGB">
<feFlood flood-opacity="0" result="BackgroundImageFix"/>
<feBlend mode="normal" in="SourceGraphic" in2="BackgroundImageFix" result="shape"/>
<feColorMatrix in="SourceAlpha" type="matrix" values="0 0 0 0 0 0 0 0 0 0 0 0 0 0 0 0 0 0 127 0" result="hardAlpha"/>
<feOffset dx="2" dy="4"/>
<feGaussianBlur stdDeviation="1.5"/>
<feComposite in2="hardAlpha" operator="arithmetic" k2="-1" k3="1"/>
<feColorMatrix type="matrix" values="0 0 0 0 0 0 0 0 0 0 0 0 0 0 0 0 0 0 0.25 0"/>
<feBlend mode="normal" in2="shape" result="effect1_innerShadow_8_58"/>
</filter>
<filter id="filter1_d_8_58" x="9.28101" y="32.5632" width="60.313" height="71.3891" filterUnits="userSpaceOnUse" color-interpolation-filters="sRGB">
<feFlood flood-opacity="0" result="BackgroundImageFix"/>
<feColorMatrix in="SourceAlpha" type="matrix" values="0 0 0 0 0 0 0 0 0 0 0 0 0 0 0 0 0 0 127 0" result="hardAlpha"/>
<feOffset dx="2" dy="4"/>
<feGaussianBlur stdDeviation="1.5"/>
<feComposite in2="hardAlpha" operator="out"/>
<feColorMatrix type="matrix" values="0 0 0 0 0 0 0 0 0 0 0 0 0 0 0 0 0 0 0.25 0"/>
<feBlend mode="normal" in2="BackgroundImageFix" result="effect1_dropShadow_8_58"/>
<feBlend mode="normal" in="SourceGraphic" in2="effect1_dropShadow_8_58" result="shape"/>
</filter>
</defs>
</svg>
