<?xml version="1.0" encoding="UTF-8" standalone="no"?>
<!DOCTYPE svg PUBLIC "-//W3C//DTD SVG 1.1//EN"
 "http://www.w3.org/Graphics/SVG/1.1/DTD/svg11.dtd">
<!-- Generated by graphviz version 13.1.2 (20250808.2320)
 -->
<!-- Pages: 1 -->
<svg width="2173pt" height="204pt"
 viewBox="0.00 0.00 2173.00 204.00" xmlns="http://www.w3.org/2000/svg" xmlns:xlink="http://www.w3.org/1999/xlink">
<g id="graph0" class="graph" transform="scale(1 1) rotate(0) translate(4 200.25)">
<polygon fill="white" stroke="none" points="-4,4 -4,-200.25 2169.45,-200.25 2169.45,4 -4,4"/>
<!-- 4514957504 -->
<g id="node1" class="node">
<title>4514957504</title>
<polygon fill="none" stroke="black" points="2055.7,-102.5 2055.7,-176 2165.45,-176 2165.45,-102.5 2055.7,-102.5"/>
<text xml:space="preserve" text-anchor="middle" x="2110.57" y="-158.7" font-family="Times,serif" font-size="14.00">Tensor &#39;D&#39;</text>
<polyline fill="none" stroke="black" points="2055.7,-151.5 2165.45,-151.5"/>
<text xml:space="preserve" text-anchor="middle" x="2110.57" y="-134.2" font-family="Times,serif" font-size="14.00">shape: (2, 3)</text>
<polyline fill="none" stroke="black" points="2055.7,-127 2165.45,-127"/>
<text xml:space="preserve" text-anchor="middle" x="2110.57" y="-109.7" font-family="Times,serif" font-size="14.00">comp_grad: True</text>
</g>
<!-- 4514957504ReLU -->
<g id="node2" class="node">
<title>4514957504ReLU</title>
<ellipse fill="none" stroke="black" cx="1986.26" cy="-139.25" rx="33.44" ry="18"/>
<text xml:space="preserve" text-anchor="middle" x="1986.26" y="-134.2" font-family="Times,serif" font-size="14.00">ReLU</text>
</g>
<!-- 4514957504ReLU&#45;&gt;4514957504 -->
<g id="edge1" class="edge">
<title>4514957504ReLU&#45;&gt;4514957504</title>
<path fill="none" stroke="black" d="M2020.04,-139.25C2027.53,-139.25 2035.75,-139.25 2044.08,-139.25"/>
<polygon fill="black" stroke="black" points="2043.93,-142.75 2053.93,-139.25 2043.93,-135.75 2043.93,-142.75"/>
</g>
<!-- 4514941264 -->
<g id="node3" class="node">
<title>4514941264</title>
<polygon fill="none" stroke="black" points="1807.07,-114.75 1807.07,-163.75 1916.82,-163.75 1916.82,-114.75 1807.07,-114.75"/>
<text xml:space="preserve" text-anchor="middle" x="1861.94" y="-146.45" font-family="Times,serif" font-size="14.00">shape: (2, 3)</text>
<polyline fill="none" stroke="black" points="1807.07,-139.25 1916.82,-139.25"/>
<text xml:space="preserve" text-anchor="middle" x="1861.94" y="-121.95" font-family="Times,serif" font-size="14.00">comp_grad: True</text>
</g>
<!-- 4514941264&#45;&gt;4514957504ReLU -->
<g id="edge10" class="edge">
<title>4514941264&#45;&gt;4514957504ReLU</title>
<path fill="none" stroke="black" d="M1917.3,-139.25C1925.27,-139.25 1933.39,-139.25 1941.12,-139.25"/>
<polygon fill="black" stroke="black" points="1940.96,-142.75 1950.96,-139.25 1940.96,-135.75 1940.96,-142.75"/>
</g>
<!-- 4514941264* -->
<g id="node4" class="node">
<title>4514941264*</title>
<ellipse fill="none" stroke="black" cx="1744.07" cy="-139.25" rx="27" ry="18"/>
<text xml:space="preserve" text-anchor="middle" x="1744.07" y="-134.2" font-family="Times,serif" font-size="14.00">*</text>
</g>
<!-- 4514941264*&#45;&gt;4514941264 -->
<g id="edge2" class="edge">
<title>4514941264*&#45;&gt;4514941264</title>
<path fill="none" stroke="black" d="M1771.36,-139.25C1778.7,-139.25 1787.01,-139.25 1795.54,-139.25"/>
<polygon fill="black" stroke="black" points="1795.31,-142.75 1805.31,-139.25 1795.31,-135.75 1795.31,-142.75"/>
</g>
<!-- 4514620528 -->
<g id="node5" class="node">
<title>4514620528</title>
<polygon fill="none" stroke="black" points="1011.63,-115.75 1011.63,-164.75 1121.38,-164.75 1121.38,-115.75 1011.63,-115.75"/>
<text xml:space="preserve" text-anchor="middle" x="1066.5" y="-147.45" font-family="Times,serif" font-size="14.00">shape: (2, 3)</text>
<polyline fill="none" stroke="black" points="1011.63,-140.25 1121.38,-140.25"/>
<text xml:space="preserve" text-anchor="middle" x="1066.5" y="-122.95" font-family="Times,serif" font-size="14.00">comp_grad: True</text>
</g>
<!-- 4514620528&#45;&gt;4514941264* -->
<g id="edge11" class="edge">
<title>4514620528&#45;&gt;4514941264*</title>
<path fill="none" stroke="black" d="M1121.83,-147.67C1182.91,-155.35 1285.13,-166.25 1373.5,-166.25 1373.5,-166.25 1373.5,-166.25 1501.35,-166.25 1574.53,-166.25 1659.41,-153.88 1706.61,-145.88"/>
<polygon fill="black" stroke="black" points="1707.02,-149.36 1716.28,-144.21 1705.83,-142.46 1707.02,-149.36"/>
</g>
<!-- 4514620800sum(d=None) -->
<g id="node20" class="node">
<title>4514620800sum(d=None)</title>
<ellipse fill="none" stroke="black" cx="1220.5" cy="-117.25" rx="63.12" ry="18"/>
<text xml:space="preserve" text-anchor="middle" x="1220.5" y="-112.2" font-family="Times,serif" font-size="14.00">sum(d=None)</text>
</g>
<!-- 4514620528&#45;&gt;4514620800sum(d=None) -->
<g id="edge21" class="edge">
<title>4514620528&#45;&gt;4514620800sum(d=None)</title>
<path fill="none" stroke="black" d="M1121.52,-132.08C1131.61,-130.55 1142.26,-128.94 1152.68,-127.36"/>
<polygon fill="black" stroke="black" points="1153,-130.85 1162.36,-125.9 1151.95,-123.93 1153,-130.85"/>
</g>
<!-- 4514620528exp -->
<g id="node6" class="node">
<title>4514620528exp</title>
<ellipse fill="none" stroke="black" cx="948.63" cy="-140.25" rx="27" ry="18"/>
<text xml:space="preserve" text-anchor="middle" x="948.63" y="-135.2" font-family="Times,serif" font-size="14.00">exp</text>
</g>
<!-- 4514620528exp&#45;&gt;4514620528 -->
<g id="edge3" class="edge">
<title>4514620528exp&#45;&gt;4514620528</title>
<path fill="none" stroke="black" d="M975.92,-140.25C983.26,-140.25 991.57,-140.25 1000.1,-140.25"/>
<polygon fill="black" stroke="black" points="999.86,-143.75 1009.86,-140.25 999.86,-136.75 999.86,-143.75"/>
</g>
<!-- 4514458096 -->
<g id="node7" class="node">
<title>4514458096</title>
<polygon fill="none" stroke="black" points="775.88,-115.75 775.88,-164.75 885.63,-164.75 885.63,-115.75 775.88,-115.75"/>
<text xml:space="preserve" text-anchor="middle" x="830.75" y="-147.45" font-family="Times,serif" font-size="14.00">shape: (2, 3)</text>
<polyline fill="none" stroke="black" points="775.88,-140.25 885.63,-140.25"/>
<text xml:space="preserve" text-anchor="middle" x="830.75" y="-122.95" font-family="Times,serif" font-size="14.00">comp_grad: True</text>
</g>
<!-- 4514458096&#45;&gt;4514620528exp -->
<g id="edge13" class="edge">
<title>4514458096&#45;&gt;4514620528exp</title>
<path fill="none" stroke="black" d="M885.96,-140.25C894,-140.25 902.13,-140.25 909.74,-140.25"/>
<polygon fill="black" stroke="black" points="909.66,-143.75 919.66,-140.25 909.66,-136.75 909.66,-143.75"/>
</g>
<!-- 4514458096+ -->
<g id="node8" class="node">
<title>4514458096+</title>
<ellipse fill="none" stroke="black" cx="712.88" cy="-140.25" rx="27" ry="18"/>
<text xml:space="preserve" text-anchor="middle" x="712.88" y="-135.2" font-family="Times,serif" font-size="14.00">+</text>
</g>
<!-- 4514458096+&#45;&gt;4514458096 -->
<g id="edge4" class="edge">
<title>4514458096+&#45;&gt;4514458096</title>
<path fill="none" stroke="black" d="M740.17,-140.25C747.51,-140.25 755.82,-140.25 764.35,-140.25"/>
<polygon fill="black" stroke="black" points="764.11,-143.75 774.11,-140.25 764.11,-136.75 764.11,-143.75"/>
</g>
<!-- 4423561168 -->
<g id="node9" class="node">
<title>4423561168</title>
<polygon fill="none" stroke="black" points="394.38,-146.75 394.38,-195.75 504.13,-195.75 504.13,-146.75 394.38,-146.75"/>
<text xml:space="preserve" text-anchor="middle" x="449.25" y="-178.45" font-family="Times,serif" font-size="14.00">shape: (2, 3)</text>
<polyline fill="none" stroke="black" points="394.38,-171.25 504.13,-171.25"/>
<text xml:space="preserve" text-anchor="middle" x="449.25" y="-153.95" font-family="Times,serif" font-size="14.00">comp_grad: True</text>
</g>
<!-- 4423561168&#45;&gt;4514458096+ -->
<g id="edge14" class="edge">
<title>4423561168&#45;&gt;4514458096+</title>
<path fill="none" stroke="black" d="M504.5,-165.2C544.66,-160.67 600.7,-154.25 649.88,-148.25 657.93,-147.27 666.57,-146.17 674.76,-145.12"/>
<polygon fill="black" stroke="black" points="674.97,-148.62 684.44,-143.87 674.08,-141.68 674.97,-148.62"/>
</g>
<!-- 4423561168exp -->
<g id="node10" class="node">
<title>4423561168exp</title>
<ellipse fill="none" stroke="black" cx="179.19" cy="-171.25" rx="27" ry="18"/>
<text xml:space="preserve" text-anchor="middle" x="179.19" y="-166.2" font-family="Times,serif" font-size="14.00">exp</text>
</g>
<!-- 4423561168exp&#45;&gt;4423561168 -->
<g id="edge5" class="edge">
<title>4423561168exp&#45;&gt;4423561168</title>
<path fill="none" stroke="black" d="M206.38,-171.25C246.87,-171.25 325.9,-171.25 382.61,-171.25"/>
<polygon fill="black" stroke="black" points="382.48,-174.75 392.48,-171.25 382.48,-167.75 382.48,-174.75"/>
</g>
<!-- 4514162272 -->
<g id="node11" class="node">
<title>4514162272</title>
<polygon fill="none" stroke="black" points="0,-107.5 0,-181 109.75,-181 109.75,-107.5 0,-107.5"/>
<text xml:space="preserve" text-anchor="middle" x="54.88" y="-163.7" font-family="Times,serif" font-size="14.00">Tensor &#39;A&#39;</text>
<polyline fill="none" stroke="black" points="0,-156.5 109.75,-156.5"/>
<text xml:space="preserve" text-anchor="middle" x="54.88" y="-139.2" font-family="Times,serif" font-size="14.00">shape: (2, 3)</text>
<polyline fill="none" stroke="black" points="0,-132 109.75,-132"/>
<text xml:space="preserve" text-anchor="middle" x="54.88" y="-114.7" font-family="Times,serif" font-size="14.00">comp_grad: True</text>
</g>
<!-- 4514162272&#45;&gt;4423561168exp -->
<g id="edge16" class="edge">
<title>4514162272&#45;&gt;4423561168exp</title>
<path fill="none" stroke="black" d="M110.24,-156.25C120.97,-158.62 131.98,-161.05 141.93,-163.25"/>
<polygon fill="black" stroke="black" points="141.05,-166.64 151.57,-165.37 142.56,-159.8 141.05,-166.64"/>
</g>
<!-- 4514195632ReLU -->
<g id="node15" class="node">
<title>4514195632ReLU</title>
<ellipse fill="none" stroke="black" cx="179.19" cy="-117.25" rx="33.44" ry="18"/>
<text xml:space="preserve" text-anchor="middle" x="179.19" y="-112.2" font-family="Times,serif" font-size="14.00">ReLU</text>
</g>
<!-- 4514162272&#45;&gt;4514195632ReLU -->
<g id="edge19" class="edge">
<title>4514162272&#45;&gt;4514195632ReLU</title>
<path fill="none" stroke="black" d="M110.24,-132.25C119.1,-130.29 128.15,-128.3 136.64,-126.42"/>
<polygon fill="black" stroke="black" points="137.31,-129.86 146.32,-124.29 135.8,-123.02 137.31,-129.86"/>
</g>
<!-- 4514195936 -->
<g id="node12" class="node">
<title>4514195936</title>
<polygon fill="none" stroke="black" points="540.13,-89.75 540.13,-138.75 649.88,-138.75 649.88,-89.75 540.13,-89.75"/>
<text xml:space="preserve" text-anchor="middle" x="595" y="-121.45" font-family="Times,serif" font-size="14.00">shape: (2, 3)</text>
<polyline fill="none" stroke="black" points="540.13,-114.25 649.88,-114.25"/>
<text xml:space="preserve" text-anchor="middle" x="595" y="-96.95" font-family="Times,serif" font-size="14.00">comp_grad: True</text>
</g>
<!-- 4514195936&#45;&gt;4514458096+ -->
<g id="edge15" class="edge">
<title>4514195936&#45;&gt;4514458096+</title>
<path fill="none" stroke="black" d="M650.21,-126.41C658.93,-128.37 667.78,-130.35 675.93,-132.19"/>
<polygon fill="black" stroke="black" points="674.93,-135.55 685.45,-134.32 676.46,-128.72 674.93,-135.55"/>
</g>
<!-- 4514195936* -->
<g id="node13" class="node">
<title>4514195936*</title>
<ellipse fill="none" stroke="black" cx="449.25" cy="-110.25" rx="27" ry="18"/>
<text xml:space="preserve" text-anchor="middle" x="449.25" y="-105.2" font-family="Times,serif" font-size="14.00">*</text>
</g>
<!-- 4514195936*&#45;&gt;4514195936 -->
<g id="edge6" class="edge">
<title>4514195936*&#45;&gt;4514195936</title>
<path fill="none" stroke="black" d="M476.62,-110.98C491.25,-111.39 510.16,-111.92 528.51,-112.43"/>
<polygon fill="black" stroke="black" points="528.21,-115.92 538.3,-112.7 528.4,-108.92 528.21,-115.92"/>
</g>
<!-- 4514195632 -->
<g id="node14" class="node">
<title>4514195632</title>
<polygon fill="none" stroke="black" points="248.63,-92.75 248.63,-141.75 358.38,-141.75 358.38,-92.75 248.63,-92.75"/>
<text xml:space="preserve" text-anchor="middle" x="303.5" y="-124.45" font-family="Times,serif" font-size="14.00">shape: (2, 3)</text>
<polyline fill="none" stroke="black" points="248.63,-117.25 358.38,-117.25"/>
<text xml:space="preserve" text-anchor="middle" x="303.5" y="-99.95" font-family="Times,serif" font-size="14.00">comp_grad: True</text>
</g>
<!-- 4514195632&#45;&gt;4514195936* -->
<g id="edge17" class="edge">
<title>4514195632&#45;&gt;4514195936*</title>
<path fill="none" stroke="black" d="M358.85,-114.6C376.08,-113.76 394.74,-112.86 410.54,-112.09"/>
<polygon fill="black" stroke="black" points="410.66,-115.58 420.48,-111.6 410.32,-108.59 410.66,-115.58"/>
</g>
<!-- 4514195632ReLU&#45;&gt;4514195632 -->
<g id="edge7" class="edge">
<title>4514195632ReLU&#45;&gt;4514195632</title>
<path fill="none" stroke="black" d="M212.97,-117.25C220.46,-117.25 228.68,-117.25 237.01,-117.25"/>
<polygon fill="black" stroke="black" points="236.86,-120.75 246.86,-117.25 236.86,-113.75 236.86,-120.75"/>
</g>
<!-- 4423563728 -->
<g id="node16" class="node">
<title>4423563728</title>
<polygon fill="none" stroke="black" points="248.63,-0.5 248.63,-74 358.38,-74 358.38,-0.5 248.63,-0.5"/>
<text xml:space="preserve" text-anchor="middle" x="303.5" y="-56.7" font-family="Times,serif" font-size="14.00">Tensor &#39;B&#39;</text>
<polyline fill="none" stroke="black" points="248.63,-49.5 358.38,-49.5"/>
<text xml:space="preserve" text-anchor="middle" x="303.5" y="-32.2" font-family="Times,serif" font-size="14.00">shape: (2, 3)</text>
<polyline fill="none" stroke="black" points="248.63,-25 358.38,-25"/>
<text xml:space="preserve" text-anchor="middle" x="303.5" y="-7.7" font-family="Times,serif" font-size="14.00">comp_grad: True</text>
</g>
<!-- 4423563728&#45;&gt;4514195936* -->
<g id="edge18" class="edge">
<title>4423563728&#45;&gt;4514195936*</title>
<path fill="none" stroke="black" d="M358.85,-64.85C378.6,-74.88 400.23,-85.87 417.27,-94.52"/>
<polygon fill="black" stroke="black" points="415.38,-97.48 425.88,-98.89 418.55,-91.24 415.38,-97.48"/>
</g>
<!-- 4514941008 -->
<g id="node17" class="node">
<title>4514941008</title>
<polygon fill="none" stroke="black" points="1571.32,-88.75 1571.32,-137.75 1681.07,-137.75 1681.07,-88.75 1571.32,-88.75"/>
<text xml:space="preserve" text-anchor="middle" x="1626.19" y="-120.45" font-family="Times,serif" font-size="14.00">shape: (1, 1)</text>
<polyline fill="none" stroke="black" points="1571.32,-113.25 1681.07,-113.25"/>
<text xml:space="preserve" text-anchor="middle" x="1626.19" y="-95.95" font-family="Times,serif" font-size="14.00">comp_grad: True</text>
</g>
<!-- 4514941008&#45;&gt;4514941264* -->
<g id="edge12" class="edge">
<title>4514941008&#45;&gt;4514941264*</title>
<path fill="none" stroke="black" d="M1681.4,-125.41C1690.13,-127.37 1698.97,-129.35 1707.13,-131.19"/>
<polygon fill="black" stroke="black" points="1706.12,-134.55 1716.64,-133.32 1707.65,-127.72 1706.12,-134.55"/>
</g>
<!-- 4514941008^&#45;1.00 -->
<g id="node18" class="node">
<title>4514941008^&#45;1.00</title>
<ellipse fill="none" stroke="black" cx="1500.35" cy="-113.25" rx="34.97" ry="18"/>
<text xml:space="preserve" text-anchor="middle" x="1500.35" y="-108.2" font-family="Times,serif" font-size="14.00">^&#45;1.00</text>
</g>
<!-- 4514941008^&#45;1.00&#45;&gt;4514941008 -->
<g id="edge8" class="edge">
<title>4514941008^&#45;1.00&#45;&gt;4514941008</title>
<path fill="none" stroke="black" d="M1535.52,-113.25C1543.1,-113.25 1551.38,-113.25 1559.74,-113.25"/>
<polygon fill="black" stroke="black" points="1559.63,-116.75 1569.63,-113.25 1559.63,-109.75 1559.63,-116.75"/>
</g>
<!-- 4514620800 -->
<g id="node19" class="node">
<title>4514620800</title>
<polygon fill="none" stroke="black" points="1319.62,-88.75 1319.62,-137.75 1429.37,-137.75 1429.37,-88.75 1319.62,-88.75"/>
<text xml:space="preserve" text-anchor="middle" x="1374.5" y="-120.45" font-family="Times,serif" font-size="14.00">shape: (1, 1)</text>
<polyline fill="none" stroke="black" points="1319.62,-113.25 1429.37,-113.25"/>
<text xml:space="preserve" text-anchor="middle" x="1374.5" y="-95.95" font-family="Times,serif" font-size="14.00">comp_grad: True</text>
</g>
<!-- 4514620800&#45;&gt;4514941008^&#45;1.00 -->
<g id="edge20" class="edge">
<title>4514620800&#45;&gt;4514941008^&#45;1.00</title>
<path fill="none" stroke="black" d="M1429.82,-113.25C1437.76,-113.25 1445.87,-113.25 1453.62,-113.25"/>
<polygon fill="black" stroke="black" points="1453.51,-116.75 1463.51,-113.25 1453.51,-109.75 1453.51,-116.75"/>
</g>
<!-- 4514620800sum(d=None)&#45;&gt;4514620800 -->
<g id="edge9" class="edge">
<title>4514620800sum(d=None)&#45;&gt;4514620800</title>
<path fill="none" stroke="black" d="M1283.76,-115.61C1291.79,-115.4 1300.02,-115.18 1308.09,-114.97"/>
<polygon fill="black" stroke="black" points="1307.94,-118.48 1317.85,-114.71 1307.76,-111.48 1307.94,-118.48"/>
</g>
</g>
</svg>
