<svg width="475" height="219" viewBox="0 0 475 219" fill="none" xmlns="http://www.w3.org/2000/svg">
<g filter="url(#filter0_i_8_46)">
<path d="M225.16 185.68C219.8 185.68 215.68 184.76 212.8 182.92C209.92 181.08 207.8 179.04 206.44 176.8H204.28V184H189.4V100H204.52V131.32H206.68C207.56 129.88 208.72 128.52 210.16 127.24C211.68 125.96 213.64 124.92 216.04 124.12C218.52 123.24 221.56 122.8 225.16 122.8C229.96 122.8 234.4 124 238.48 126.4C242.56 128.72 245.84 132.16 248.32 136.72C250.8 141.28 252.04 146.8 252.04 153.28V155.2C252.04 161.68 250.8 167.2 248.32 171.76C245.84 176.32 242.56 179.8 238.48 182.2C234.4 184.52 229.96 185.68 225.16 185.68ZM220.6 172.48C225.24 172.48 229.12 171 232.24 168.04C235.36 165 236.92 160.6 236.92 154.84V153.64C236.92 147.88 235.36 143.52 232.24 140.56C229.2 137.52 225.32 136 220.6 136C215.96 136 212.08 137.52 208.96 140.56C205.84 143.52 204.28 147.88 204.28 153.64V154.84C204.28 160.6 205.84 165 208.96 168.04C212.08 171 215.96 172.48 220.6 172.48ZM282.243 185.68C276.323 185.68 271.003 184.48 266.283 182.08C261.563 179.68 257.843 176.2 255.123 171.64C252.403 167.08 251.043 161.6 251.043 155.2V153.28C251.043 146.88 252.403 141.4 255.123 136.84C257.843 132.28 261.563 128.8 266.283 126.4C271.003 124 276.323 122.8 282.243 122.8C288.163 122.8 293.483 124 298.203 126.4C302.923 128.8 306.643 132.28 309.363 136.84C312.083 141.4 313.443 146.88 313.443 153.28V155.2C313.443 161.6 312.083 167.08 309.363 171.64C306.643 176.2 302.923 179.68 298.203 182.08C293.483 184.48 288.163 185.68 282.243 185.68ZM282.243 172.24C286.883 172.24 290.723 170.76 293.763 167.8C296.803 164.76 298.323 160.44 298.323 154.84V153.64C298.323 148.04 296.803 143.76 293.763 140.8C290.803 137.76 286.963 136.24 282.243 136.24C277.603 136.24 273.763 137.76 270.723 140.8C267.683 143.76 266.163 148.04 266.163 153.64V154.84C266.163 160.44 267.683 164.76 270.723 167.8C273.763 170.76 277.603 172.24 282.243 172.24ZM333.88 185.68C329.64 185.68 325.84 184.96 322.48 183.52C319.12 182 316.44 179.84 314.44 177.04C312.52 174.16 311.56 170.68 311.56 166.6C311.56 162.52 312.52 159.12 314.44 156.4C316.44 153.6 319.16 151.52 322.6 150.16C326.12 148.72 330.12 148 334.6 148H350.92V144.64C350.92 141.84 350.04 139.56 348.28 137.8C346.52 135.96 343.72 135.04 339.88 135.04C336.12 135.04 333.32 135.92 331.48 137.68C329.64 139.36 328.44 141.56 327.88 144.28L313.96 139.6C314.92 136.56 316.44 133.8 318.52 131.32C320.68 128.76 323.52 126.72 327.04 125.2C330.64 123.6 335 122.8 340.12 122.8C347.96 122.8 354.16 124.76 358.72 128.68C363.28 132.6 365.56 138.28 365.56 145.72V167.92C365.56 170.32 366.68 171.52 368.92 171.52H373.72V184H363.64C360.68 184 358.24 183.28 356.32 181.84C354.4 180.4 353.44 178.48 353.44 176.08V175.96H351.16C350.84 176.92 350.12 178.2 349 179.8C347.88 181.32 346.12 182.68 343.72 183.88C341.32 185.08 338.04 185.68 333.88 185.68ZM336.52 173.44C340.76 173.44 344.2 172.28 346.84 169.96C349.56 167.56 350.92 164.4 350.92 160.48V159.28H335.68C332.88 159.28 330.68 159.88 329.08 161.08C327.48 162.28 326.68 163.96 326.68 166.12C326.68 168.28 327.52 170.04 329.2 171.4C330.88 172.76 333.32 173.44 336.52 173.44ZM372.775 184V124.48H387.655V131.2H389.815C390.695 128.8 392.135 127.04 394.135 125.92C396.215 124.8 398.615 124.24 401.335 124.24H408.535V137.68H401.095C397.255 137.68 394.095 138.72 391.615 140.8C389.135 142.8 387.895 145.92 387.895 150.16V184H372.775ZM430.244 185.68C425.524 185.68 421.084 184.52 416.924 182.2C412.844 179.8 409.564 176.32 407.084 171.76C404.604 167.2 403.364 161.68 403.364 155.2V153.28C403.364 146.8 404.604 141.28 407.084 136.72C409.564 132.16 412.844 128.72 416.924 126.4C421.004 124 425.444 122.8 430.244 122.8C433.844 122.8 436.844 123.24 439.244 124.12C441.724 124.92 443.724 125.96 445.244 127.24C446.764 128.52 447.924 129.88 448.724 131.32H450.884V100H466.004V184H451.124V176.8H448.964C447.604 179.04 445.484 181.08 442.604 182.92C439.804 184.76 435.684 185.68 430.244 185.68ZM434.804 172.48C439.444 172.48 443.324 171 446.444 168.04C449.564 165 451.124 160.6 451.124 154.84V153.64C451.124 147.88 449.564 143.52 446.444 140.56C443.404 137.52 439.524 136 434.804 136C430.164 136 426.284 137.52 423.164 140.56C420.044 143.52 418.484 147.88 418.484 153.64V154.84C418.484 160.6 420.044 165 423.164 168.04C426.284 171 430.164 172.48 434.804 172.48Z" fill="#4474B8"/>
</g>
<g filter="url(#filter1_d_8_46)">
<path d="M33.12 119.68C25.36 119.68 19 118 14.04 114.64C9.08 111.28 6.08 106.48 5.04 100.24L18.96 96.64C19.52 99.44 20.44 101.64 21.72 103.24C23.08 104.84 24.72 106 26.64 106.72C28.64 107.36 30.8 107.68 33.12 107.68C36.64 107.68 39.24 107.08 40.92 105.88C42.6 104.6 43.44 103.04 43.44 101.2C43.44 99.36 42.64 97.96 41.04 97C39.44 95.96 36.88 95.12 33.36 94.48L30 93.88C25.84 93.08 22.04 92 18.6 90.64C15.16 89.2 12.4 87.24 10.32 84.76C8.24 82.28 7.2 79.08 7.2 75.16C7.2 69.24 9.36 64.72 13.68 61.6C18 58.4 23.68 56.8 30.72 56.8C37.36 56.8 42.88 58.28 47.28 61.24C51.68 64.2 54.56 68.08 55.92 72.88L41.88 77.2C41.24 74.16 39.92 72 37.92 70.72C36 69.44 33.6 68.8 30.72 68.8C27.84 68.8 25.64 69.32 24.12 70.36C22.6 71.32 21.84 72.68 21.84 74.44C21.84 76.36 22.64 77.8 24.24 78.76C25.84 79.64 28 80.32 30.72 80.8L34.08 81.4C38.56 82.2 42.6 83.28 46.2 84.64C49.88 85.92 52.76 87.8 54.84 90.28C57 92.68 58.08 95.96 58.08 100.12C58.08 106.36 55.8 111.2 51.24 114.64C46.76 118 40.72 119.68 33.12 119.68ZM59.3297 118V58.48H74.4497V118H59.3297ZM66.8897 51.52C64.1697 51.52 61.8497 50.64 59.9297 48.88C58.0897 47.12 57.1697 44.8 57.1697 41.92C57.1697 39.04 58.0897 36.72 59.9297 34.96C61.8497 33.2 64.1697 32.32 66.8897 32.32C69.6897 32.32 72.0097 33.2 73.8497 34.96C75.6897 36.72 76.6097 39.04 76.6097 41.92C76.6097 44.8 75.6897 47.12 73.8497 48.88C72.0097 50.64 69.6897 51.52 66.8897 51.52ZM79.2047 118V58.48H94.0847V64.96H96.2447C97.2847 62.96 99.0047 61.24 101.405 59.8C103.805 58.28 106.965 57.52 110.885 57.52C115.125 57.52 118.525 58.36 121.085 60.04C123.645 61.64 125.605 63.76 126.965 66.4H129.125C130.485 63.84 132.405 61.72 134.885 60.04C137.365 58.36 140.885 57.52 145.445 57.52C149.125 57.52 152.445 58.32 155.405 59.92C158.445 61.44 160.845 63.8 162.605 67C164.445 70.12 165.365 74.08 165.365 78.88V118H150.245V79.96C150.245 76.68 149.405 74.24 147.725 72.64C146.045 70.96 143.685 70.12 140.645 70.12C137.205 70.12 134.525 71.24 132.605 73.48C130.765 75.64 129.845 78.76 129.845 82.84V118H114.725V79.96C114.725 76.68 113.885 74.24 112.205 72.64C110.525 70.96 108.165 70.12 105.125 70.12C101.685 70.12 99.0047 71.24 97.0847 73.48C95.2447 75.64 94.3247 78.76 94.3247 82.84V118H79.2047ZM169.627 142V58.48H184.507V65.68H186.667C188.027 63.36 190.147 61.32 193.027 59.56C195.907 57.72 200.027 56.8 205.387 56.8C210.187 56.8 214.627 58 218.707 60.4C222.787 62.72 226.067 66.16 228.547 70.72C231.027 75.28 232.267 80.8 232.267 87.28V89.2C232.267 95.68 231.027 101.2 228.547 105.76C226.067 110.32 222.787 113.8 218.707 116.2C214.627 118.52 210.187 119.68 205.387 119.68C201.787 119.68 198.747 119.24 196.267 118.36C193.867 117.56 191.907 116.52 190.387 115.24C188.947 113.88 187.787 112.52 186.907 111.16H184.747V142H169.627ZM200.827 106.48C205.547 106.48 209.427 105 212.467 102.04C215.587 99 217.147 94.6 217.147 88.84V87.64C217.147 81.88 215.587 77.52 212.467 74.56C209.347 71.52 205.467 70 200.827 70C196.187 70 192.307 71.52 189.187 74.56C186.067 77.52 184.507 81.88 184.507 87.64V88.84C184.507 94.6 186.067 99 189.187 102.04C192.307 105 196.187 106.48 200.827 106.48ZM234.15 118V34H249.27V118H234.15ZM281.145 119.68C275.225 119.68 269.985 118.44 265.425 115.96C260.945 113.4 257.425 109.84 254.865 105.28C252.385 100.64 251.145 95.2 251.145 88.96V87.52C251.145 81.28 252.385 75.88 254.865 71.32C257.345 66.68 260.825 63.12 265.305 60.64C269.785 58.08 274.985 56.8 280.905 56.8C286.745 56.8 291.825 58.12 296.145 60.76C300.465 63.32 303.825 66.92 306.225 71.56C308.625 76.12 309.825 81.44 309.825 87.52V92.68H266.505C266.665 96.76 268.185 100.08 271.065 102.64C273.945 105.2 277.465 106.48 281.625 106.48C285.865 106.48 288.985 105.56 290.985 103.72C292.985 101.88 294.505 99.84 295.545 97.6L307.905 104.08C306.785 106.16 305.145 108.44 302.985 110.92C300.905 113.32 298.105 115.4 294.585 117.16C291.065 118.84 286.585 119.68 281.145 119.68ZM266.625 81.4H294.465C294.145 77.96 292.745 75.2 290.265 73.12C287.865 71.04 284.705 70 280.785 70C276.705 70 273.465 71.04 271.065 73.12C268.665 75.2 267.185 77.96 266.625 81.4Z" fill="#151718"/>
</g>
<defs>
<filter id="filter0_i_8_46" x="189.4" y="100" width="278.604" height="88.68" filterUnits="userSpaceOnUse" color-interpolation-filters="sRGB">
<feFlood flood-opacity="0" result="BackgroundImageFix"/>
<feBlend mode="normal" in="SourceGraphic" in2="BackgroundImageFix" result="shape"/>
<feColorMatrix in="SourceAlpha" type="matrix" values="0 0 0 0 0 0 0 0 0 0 0 0 0 0 0 0 0 0 127 0" result="hardAlpha"/>
<feOffset dx="2" dy="4"/>
<feGaussianBlur stdDeviation="1.5"/>
<feComposite in2="hardAlpha" operator="arithmetic" k2="-1" k3="1"/>
<feColorMatrix type="matrix" values="0 0 0 0 0 0 0 0 0 0 0 0 0 0 0 0 0 0 0.25 0"/>
<feBlend mode="normal" in2="shape" result="effect1_innerShadow_8_46"/>
</filter>
<filter id="filter1_d_8_46" x="4.04004" y="32.32" width="310.785" height="116.68" filterUnits="userSpaceOnUse" color-interpolation-filters="sRGB">
<feFlood flood-opacity="0" result="BackgroundImageFix"/>
<feColorMatrix in="SourceAlpha" type="matrix" values="0 0 0 0 0 0 0 0 0 0 0 0 0 0 0 0 0 0 127 0" result="hardAlpha"/>
<feOffset dx="2" dy="4"/>
<feGaussianBlur stdDeviation="1.5"/>
<feComposite in2="hardAlpha" operator="out"/>
<feColorMatrix type="matrix" values="0 0 0 0 0 0 0 0 0 0 0 0 0 0 0 0 0 0 0.25 0"/>
<feBlend mode="normal" in2="BackgroundImageFix" result="effect1_dropShadow_8_46"/>
<feBlend mode="normal" in="SourceGraphic" in2="effect1_dropShadow_8_46" result="shape"/>
</filter>
</defs>
</svg>
