<svg width="413" height="219" viewBox="0 0 413 219" fill="none" xmlns="http://www.w3.org/2000/svg">
<g filter="url(#filter0_i_8_41)">
<path d="M186.52 154.48V152.56C186.52 146.32 187.76 141 190.24 136.6C192.72 132.12 196 128.72 200.08 126.4C204.24 124 208.76 122.8 213.64 122.8C219.08 122.8 223.2 123.76 226 125.68C228.8 127.6 230.84 129.6 232.12 131.68H234.28V124.48H249.16V194.56C249.16 198.64 247.96 201.88 245.56 204.28C243.16 206.76 239.96 208 235.96 208H196.12V194.8H230.68C232.92 194.8 234.04 193.6 234.04 191.2V175.72H231.88C231.08 177 229.96 178.32 228.52 179.68C227.08 180.96 225.16 182.04 222.76 182.92C220.36 183.8 217.32 184.24 213.64 184.24C208.76 184.24 204.24 183.08 200.08 180.76C196 178.36 192.72 174.96 190.24 170.56C187.76 166.08 186.52 160.72 186.52 154.48ZM217.96 171.04C222.6 171.04 226.48 169.56 229.6 166.6C232.72 163.64 234.28 159.48 234.28 154.12V152.92C234.28 147.48 232.72 143.32 229.6 140.44C226.56 137.48 222.68 136 217.96 136C213.32 136 209.44 137.48 206.32 140.44C203.2 143.32 201.64 147.48 201.64 152.92V154.12C201.64 159.48 203.2 163.64 206.32 166.6C209.44 169.56 213.32 171.04 217.96 171.04ZM253.923 184V124.48H268.803V131.2H270.963C271.843 128.8 273.283 127.04 275.283 125.92C277.363 124.8 279.763 124.24 282.483 124.24H289.683V137.68H282.243C278.403 137.68 275.243 138.72 272.763 140.8C270.283 142.8 269.043 145.92 269.043 150.16V184H253.923ZM306.575 185.68C302.335 185.68 298.535 184.96 295.175 183.52C291.815 182 289.135 179.84 287.135 177.04C285.215 174.16 284.255 170.68 284.255 166.6C284.255 162.52 285.215 159.12 287.135 156.4C289.135 153.6 291.855 151.52 295.295 150.16C298.815 148.72 302.815 148 307.295 148H323.615V144.64C323.615 141.84 322.735 139.56 320.975 137.8C319.215 135.96 316.415 135.04 312.575 135.04C308.815 135.04 306.015 135.92 304.175 137.68C302.335 139.36 301.135 141.56 300.575 144.28L286.655 139.6C287.615 136.56 289.135 133.8 291.215 131.32C293.375 128.76 296.215 126.72 299.735 125.2C303.335 123.6 307.695 122.8 312.815 122.8C320.655 122.8 326.855 124.76 331.415 128.68C335.975 132.6 338.255 138.28 338.255 145.72V167.92C338.255 170.32 339.375 171.52 341.615 171.52H346.415V184H336.335C333.375 184 330.935 183.28 329.015 181.84C327.095 180.4 326.135 178.48 326.135 176.08V175.96H323.855C323.535 176.92 322.815 178.2 321.695 179.8C320.575 181.32 318.815 182.68 316.415 183.88C314.015 185.08 310.735 185.68 306.575 185.68ZM309.215 173.44C313.455 173.44 316.895 172.28 319.535 169.96C322.255 167.56 323.615 164.4 323.615 160.48V159.28H308.375C305.575 159.28 303.375 159.88 301.775 161.08C300.175 162.28 299.375 163.96 299.375 166.12C299.375 168.28 300.215 170.04 301.895 171.4C303.575 172.76 306.015 173.44 309.215 173.44ZM368.298 185.68C363.578 185.68 359.138 184.52 354.978 182.2C350.898 179.8 347.618 176.32 345.138 171.76C342.658 167.2 341.418 161.68 341.418 155.2V153.28C341.418 146.8 342.658 141.28 345.138 136.72C347.618 132.16 350.898 128.72 354.978 126.4C359.058 124 363.498 122.8 368.298 122.8C371.898 122.8 374.898 123.24 377.298 124.12C379.778 124.92 381.778 125.96 383.298 127.24C384.818 128.52 385.978 129.88 386.778 131.32H388.938V100H404.058V184H389.178V176.8H387.018C385.658 179.04 383.538 181.08 380.658 182.92C377.858 184.76 373.738 185.68 368.298 185.68ZM372.858 172.48C377.498 172.48 381.378 171 384.498 168.04C387.618 165 389.178 160.6 389.178 154.84V153.64C389.178 147.88 387.618 143.52 384.498 140.56C381.458 137.52 377.578 136 372.858 136C368.218 136 364.338 137.52 361.218 140.56C358.098 143.52 356.538 147.88 356.538 153.64V154.84C356.538 160.6 358.098 165 361.218 168.04C364.338 171 368.218 172.48 372.858 172.48Z" fill="#34B87E"/>
</g>
<g filter="url(#filter1_d_8_41)">
<path d="M33.12 119.68C25.36 119.68 19 118 14.04 114.64C9.08 111.28 6.08 106.48 5.04 100.24L18.96 96.64C19.52 99.44 20.44 101.64 21.72 103.24C23.08 104.84 24.72 106 26.64 106.72C28.64 107.36 30.8 107.68 33.12 107.68C36.64 107.68 39.24 107.08 40.92 105.88C42.6 104.6 43.44 103.04 43.44 101.2C43.44 99.36 42.64 97.96 41.04 97C39.44 95.96 36.88 95.12 33.36 94.48L30 93.88C25.84 93.08 22.04 92 18.6 90.64C15.16 89.2 12.4 87.24 10.32 84.76C8.24 82.28 7.2 79.08 7.2 75.16C7.2 69.24 9.36 64.72 13.68 61.6C18 58.4 23.68 56.8 30.72 56.8C37.36 56.8 42.88 58.28 47.28 61.24C51.68 64.2 54.56 68.08 55.92 72.88L41.88 77.2C41.24 74.16 39.92 72 37.92 70.72C36 69.44 33.6 68.8 30.72 68.8C27.84 68.8 25.64 69.32 24.12 70.36C22.6 71.32 21.84 72.68 21.84 74.44C21.84 76.36 22.64 77.8 24.24 78.76C25.84 79.64 28 80.32 30.72 80.8L34.08 81.4C38.56 82.2 42.6 83.28 46.2 84.64C49.88 85.92 52.76 87.8 54.84 90.28C57 92.68 58.08 95.96 58.08 100.12C58.08 106.36 55.8 111.2 51.24 114.64C46.76 118 40.72 119.68 33.12 119.68ZM59.3297 118V58.48H74.4497V118H59.3297ZM66.8897 51.52C64.1697 51.52 61.8497 50.64 59.9297 48.88C58.0897 47.12 57.1697 44.8 57.1697 41.92C57.1697 39.04 58.0897 36.72 59.9297 34.96C61.8497 33.2 64.1697 32.32 66.8897 32.32C69.6897 32.32 72.0097 33.2 73.8497 34.96C75.6897 36.72 76.6097 39.04 76.6097 41.92C76.6097 44.8 75.6897 47.12 73.8497 48.88C72.0097 50.64 69.6897 51.52 66.8897 51.52ZM79.2047 118V58.48H94.0847V64.96H96.2447C97.2847 62.96 99.0047 61.24 101.405 59.8C103.805 58.28 106.965 57.52 110.885 57.52C115.125 57.52 118.525 58.36 121.085 60.04C123.645 61.64 125.605 63.76 126.965 66.4H129.125C130.485 63.84 132.405 61.72 134.885 60.04C137.365 58.36 140.885 57.52 145.445 57.52C149.125 57.52 152.445 58.32 155.405 59.92C158.445 61.44 160.845 63.8 162.605 67C164.445 70.12 165.365 74.08 165.365 78.88V118H150.245V79.96C150.245 76.68 149.405 74.24 147.725 72.64C146.045 70.96 143.685 70.12 140.645 70.12C137.205 70.12 134.525 71.24 132.605 73.48C130.765 75.64 129.845 78.76 129.845 82.84V118H114.725V79.96C114.725 76.68 113.885 74.24 112.205 72.64C110.525 70.96 108.165 70.12 105.125 70.12C101.685 70.12 99.0047 71.24 97.0847 73.48C95.2447 75.64 94.3247 78.76 94.3247 82.84V118H79.2047ZM169.627 142V58.48H184.507V65.68H186.667C188.027 63.36 190.147 61.32 193.027 59.56C195.907 57.72 200.027 56.8 205.387 56.8C210.187 56.8 214.627 58 218.707 60.4C222.787 62.72 226.067 66.16 228.547 70.72C231.027 75.28 232.267 80.8 232.267 87.28V89.2C232.267 95.68 231.027 101.2 228.547 105.76C226.067 110.32 222.787 113.8 218.707 116.2C214.627 118.52 210.187 119.68 205.387 119.68C201.787 119.68 198.747 119.24 196.267 118.36C193.867 117.56 191.907 116.52 190.387 115.24C188.947 113.88 187.787 112.52 186.907 111.16H184.747V142H169.627ZM200.827 106.48C205.547 106.48 209.427 105 212.467 102.04C215.587 99 217.147 94.6 217.147 88.84V87.64C217.147 81.88 215.587 77.52 212.467 74.56C209.347 71.52 205.467 70 200.827 70C196.187 70 192.307 71.52 189.187 74.56C186.067 77.52 184.507 81.88 184.507 87.64V88.84C184.507 94.6 186.067 99 189.187 102.04C192.307 105 196.187 106.48 200.827 106.48ZM234.15 118V34H249.27V118H234.15ZM281.145 119.68C275.225 119.68 269.985 118.44 265.425 115.96C260.945 113.4 257.425 109.84 254.865 105.28C252.385 100.64 251.145 95.2 251.145 88.96V87.52C251.145 81.28 252.385 75.88 254.865 71.32C257.345 66.68 260.825 63.12 265.305 60.64C269.785 58.08 274.985 56.8 280.905 56.8C286.745 56.8 291.825 58.12 296.145 60.76C300.465 63.32 303.825 66.92 306.225 71.56C308.625 76.12 309.825 81.44 309.825 87.52V92.68H266.505C266.665 96.76 268.185 100.08 271.065 102.64C273.945 105.2 277.465 106.48 281.625 106.48C285.865 106.48 288.985 105.56 290.985 103.72C292.985 101.88 294.505 99.84 295.545 97.6L307.905 104.08C306.785 106.16 305.145 108.44 302.985 110.92C300.905 113.32 298.105 115.4 294.585 117.16C291.065 118.84 286.585 119.68 281.145 119.68ZM266.625 81.4H294.465C294.145 77.96 292.745 75.2 290.265 73.12C287.865 71.04 284.705 70 280.785 70C276.705 70 273.465 71.04 271.065 73.12C268.665 75.2 267.185 77.96 266.625 81.4Z" fill="#151718"/>
</g>
<defs>
<filter id="filter0_i_8_41" x="186.52" y="100" width="219.538" height="111" filterUnits="userSpaceOnUse" color-interpolation-filters="sRGB">
<feFlood flood-opacity="0" result="BackgroundImageFix"/>
<feBlend mode="normal" in="SourceGraphic" in2="BackgroundImageFix" result="shape"/>
<feColorMatrix in="SourceAlpha" type="matrix" values="0 0 0 0 0 0 0 0 0 0 0 0 0 0 0 0 0 0 127 0" result="hardAlpha"/>
<feOffset dx="2" dy="4"/>
<feGaussianBlur stdDeviation="1.5"/>
<feComposite in2="hardAlpha" operator="arithmetic" k2="-1" k3="1"/>
<feColorMatrix type="matrix" values="0 0 0 0 0 0 0 0 0 0 0 0 0 0 0 0 0 0 0.25 0"/>
<feBlend mode="normal" in2="shape" result="effect1_innerShadow_8_41"/>
</filter>
<filter id="filter1_d_8_41" x="4.04004" y="32.32" width="310.785" height="116.68" filterUnits="userSpaceOnUse" color-interpolation-filters="sRGB">
<feFlood flood-opacity="0" result="BackgroundImageFix"/>
<feColorMatrix in="SourceAlpha" type="matrix" values="0 0 0 0 0 0 0 0 0 0 0 0 0 0 0 0 0 0 127 0" result="hardAlpha"/>
<feOffset dx="2" dy="4"/>
<feGaussianBlur stdDeviation="1.5"/>
<feComposite in2="hardAlpha" operator="out"/>
<feColorMatrix type="matrix" values="0 0 0 0 0 0 0 0 0 0 0 0 0 0 0 0 0 0 0.25 0"/>
<feBlend mode="normal" in2="BackgroundImageFix" result="effect1_dropShadow_8_41"/>
<feBlend mode="normal" in="SourceGraphic" in2="effect1_dropShadow_8_41" result="shape"/>
</filter>
</defs>
</svg>
